<svg width="24" height="24" xmlns="http://www.w3.org/2000/svg">
 <title/>

 <g>
  <title>background</title>
  <rect fill="none" id="canvas_background" height="402" width="582" y="-1" x="-1"/>
 </g>
 <g>
  <title>Layer 1</title>
  <circle fill="#ffffff" id="svg_1" r="4" cy="8" cx="16"/>
  <path fill="#ffffff" id="svg_2" d="m12.58331,8.83331c-0.20843,0 -0.58331,0.43232 -0.58331,0.66669a8.5,8.5 0 0 1 -8.5,8.5a8.52217,8.52217 0 0 1 -1.28479,-0.1073a11.41717,11.41717 0 0 0 17.78479,-9.47607c0,-0.73563 -4.68243,0.41668 -7.41669,0.41668z"/>
  <path fill="#ffffff" id="svg_3" d="m12.58331,8.83331a11.385,11.385 0 0 1 -8.69452,-4.028a3.93758,3.93758 0 0 0 -0.53879,1.9655a3.9792,3.9792 0 0 0 3.97916,3.97919c2.12482,0 5.89844,0.02264 6.14691,-1.96179c-0.29553,0.02295 -0.59137,0.0451 -0.89276,0.0451z"/>
  <path fill="#ffffff" id="svg_4" d="m5.24585,10.04163a3.93437,3.93437 0 0 1 -1.88977,-0.49774c-0.00031,0.02057 -0.0061,0.03961 -0.0061,0.06024a3.9792,3.9792 0 0 0 3.97919,3.97919c2.19763,0 5.275,-1.594 5.275,-3.79165c0,-1.50967 -5.18132,0.24996 -7.35832,0.24996z"/>
  <path fill="#ffffff" id="svg_5" d="m7.72642,12.99649a3.90991,3.90991 0 0 1 -3.02909,0.52286a3.96636,3.96636 0 0 0 3.79852,2.85565a5.25835,5.25835 0 0 0 4.67082,-4.66667c0,-1.89355 -4.33836,0.58055 -5.44025,1.28816z"/>
  <path fill="#ffffff" id="svg_6" d="m17.61041,5.37915c-1.32214,0 -1.63562,1.6604 0.075,1.6604a3.96629,3.96629 0 0 0 3.754,-2.71222a7.49909,7.49909 0 0 1 -3.829,1.05182z"/>
  <path fill="#ffffff" id="svg_7" d="m18.82916,6.5354a7.52209,7.52209 0 0 1 -2.93716,-0.593c-2.70831,-1.14551 -4.35526,3.343 -0.18784,3.343a7.53392,7.53392 0 0 0 6.35163,-3.4824a7.50268,7.50268 0 0 1 -3.22663,0.7324z"/>
 </g>
</svg>